<mxfile host="Electron" agent="Mozilla/5.0 (Windows NT 10.0; Win64; x64) AppleWebKit/537.36 (KHTML, like Gecko) draw.io/24.7.8 Chrome/128.0.6613.36 Electron/32.0.1 Safari/537.36" version="24.7.8">
  <diagram name="Strona-1" id="uDWs3KkWeHJYz_EBmwp3">
    <mxGraphModel dx="757" dy="690" grid="1" gridSize="10" guides="1" tooltips="1" connect="1" arrows="1" fold="1" page="1" pageScale="1" pageWidth="827" pageHeight="1169" math="0" shadow="0">
      <root>
        <mxCell id="0" />
        <mxCell id="1" parent="0" />
        <mxCell id="JMo5-8yaMocJc1o28oo3-1" value="Użytkownik&amp;nbsp;&lt;div&gt;nieuwierzytelniony&lt;/div&gt;" style="shape=umlActor;verticalLabelPosition=bottom;verticalAlign=top;html=1;outlineConnect=0;" parent="1" vertex="1">
          <mxGeometry x="50" y="380" width="30" height="60" as="geometry" />
        </mxCell>
        <mxCell id="ZpiSfnfSVMyxBeal5erH-1" value="" style="endArrow=none;html=1;rounded=0;entryX=0;entryY=1;entryDx=0;entryDy=0;" edge="1" parent="1" target="JMo5-8yaMocJc1o28oo3-2">
          <mxGeometry width="50" height="50" relative="1" as="geometry">
            <mxPoint x="80" y="400" as="sourcePoint" />
            <mxPoint x="290" y="390" as="targetPoint" />
          </mxGeometry>
        </mxCell>
        <mxCell id="ZpiSfnfSVMyxBeal5erH-4" value="" style="swimlane;startSize=0;" vertex="1" parent="1">
          <mxGeometry x="130" y="190" width="490" height="390" as="geometry" />
        </mxCell>
        <mxCell id="ZpiSfnfSVMyxBeal5erH-2" value="Zaloguj" style="ellipse;whiteSpace=wrap;html=1;" vertex="1" parent="ZpiSfnfSVMyxBeal5erH-4">
          <mxGeometry x="135" y="170" width="120" height="80" as="geometry" />
        </mxCell>
        <mxCell id="ZpiSfnfSVMyxBeal5erH-3" value="Resetuj hasło" style="ellipse;whiteSpace=wrap;html=1;" vertex="1" parent="ZpiSfnfSVMyxBeal5erH-4">
          <mxGeometry x="70" y="260" width="120" height="80" as="geometry" />
        </mxCell>
        <mxCell id="JMo5-8yaMocJc1o28oo3-2" value="Zarejestruj się" style="ellipse;whiteSpace=wrap;html=1;" parent="ZpiSfnfSVMyxBeal5erH-4" vertex="1">
          <mxGeometry x="70" y="70" width="120" height="80" as="geometry" />
        </mxCell>
        <mxCell id="ZpiSfnfSVMyxBeal5erH-19" value="" style="fontStyle=1;align=center;verticalAlign=top;childLayout=stackLayout;horizontal=1;horizontalStack=0;resizeParent=1;resizeParentMax=0;resizeLast=0;marginBottom=0;" vertex="1" parent="ZpiSfnfSVMyxBeal5erH-4">
          <mxGeometry x="284" y="55" width="170" height="110" as="geometry" />
        </mxCell>
        <mxCell id="ZpiSfnfSVMyxBeal5erH-20" value="&lt;span style=&quot;font-weight: normal;&quot;&gt;Wybierz rolę w systemie&lt;/span&gt;" style="html=1;align=left;spacingLeft=4;verticalAlign=middle;strokeColor=none;fillColor=none;fontStyle=1;whiteSpace=wrap;" vertex="1" parent="ZpiSfnfSVMyxBeal5erH-19">
          <mxGeometry width="170" height="30" as="geometry" />
        </mxCell>
        <mxCell id="ZpiSfnfSVMyxBeal5erH-21" value="" style="shape=ellipse;" vertex="1" parent="ZpiSfnfSVMyxBeal5erH-20">
          <mxGeometry x="1" width="20" height="16" relative="1" as="geometry">
            <mxPoint x="-25" y="7" as="offset" />
          </mxGeometry>
        </mxCell>
        <mxCell id="ZpiSfnfSVMyxBeal5erH-22" value="" style="line;strokeWidth=1;fillColor=none;align=left;verticalAlign=middle;spacingTop=-1;spacingLeft=3;spacingRight=3;rotatable=0;labelPosition=right;points=[];portConstraint=eastwest;" vertex="1" parent="ZpiSfnfSVMyxBeal5erH-19">
          <mxGeometry y="30" width="170" height="8" as="geometry" />
        </mxCell>
        <mxCell id="ZpiSfnfSVMyxBeal5erH-23" value="extension points" style="html=1;align=center;spacingLeft=4;verticalAlign=top;strokeColor=none;fillColor=none;whiteSpace=wrap;" vertex="1" parent="ZpiSfnfSVMyxBeal5erH-19">
          <mxGeometry y="38" width="170" height="25" as="geometry" />
        </mxCell>
        <mxCell id="ZpiSfnfSVMyxBeal5erH-24" value="Wybrano rolę wolontariusza lub darczyńcy" style="html=1;align=left;spacingLeft=4;verticalAlign=top;strokeColor=none;fillColor=none;whiteSpace=wrap;" vertex="1" parent="ZpiSfnfSVMyxBeal5erH-19">
          <mxGeometry y="63" width="170" height="47" as="geometry" />
        </mxCell>
        <mxCell id="ZpiSfnfSVMyxBeal5erH-10" value="&amp;lt;&amp;lt;include&amp;gt;&amp;gt;" style="endArrow=open;endSize=12;dashed=1;html=1;rounded=0;exitX=1;exitY=0.5;exitDx=0;exitDy=0;entryX=-0.021;entryY=0.72;entryDx=0;entryDy=0;entryPerimeter=0;" edge="1" parent="ZpiSfnfSVMyxBeal5erH-4" source="JMo5-8yaMocJc1o28oo3-2" target="ZpiSfnfSVMyxBeal5erH-23">
          <mxGeometry width="160" relative="1" as="geometry">
            <mxPoint x="200" y="-180" as="sourcePoint" />
            <mxPoint x="294" y="160" as="targetPoint" />
          </mxGeometry>
        </mxCell>
        <mxCell id="ZpiSfnfSVMyxBeal5erH-7" value="Wybierz organizację pomocową" style="ellipse;whiteSpace=wrap;html=1;" vertex="1" parent="ZpiSfnfSVMyxBeal5erH-4">
          <mxGeometry x="309" y="260" width="120" height="80" as="geometry" />
        </mxCell>
        <mxCell id="ZpiSfnfSVMyxBeal5erH-11" value="&amp;lt;&amp;lt;extend&amp;gt;&amp;gt;" style="endArrow=open;endSize=12;dashed=1;html=1;rounded=0;exitX=0.5;exitY=0;exitDx=0;exitDy=0;entryX=0.5;entryY=1;entryDx=0;entryDy=0;" edge="1" parent="ZpiSfnfSVMyxBeal5erH-4" source="ZpiSfnfSVMyxBeal5erH-7" target="ZpiSfnfSVMyxBeal5erH-24">
          <mxGeometry width="160" relative="1" as="geometry">
            <mxPoint x="480" y="310" as="sourcePoint" />
            <mxPoint x="200" y="310" as="targetPoint" />
          </mxGeometry>
        </mxCell>
        <mxCell id="ZpiSfnfSVMyxBeal5erH-25" value="&lt;b&gt;&lt;font style=&quot;font-size: 14px;&quot;&gt;System koordynacji pomocy humanitarnej&lt;/font&gt;&lt;/b&gt;" style="text;html=1;align=center;verticalAlign=middle;resizable=0;points=[];autosize=1;strokeColor=none;fillColor=none;" vertex="1" parent="ZpiSfnfSVMyxBeal5erH-4">
          <mxGeometry x="90" width="310" height="30" as="geometry" />
        </mxCell>
        <mxCell id="ZpiSfnfSVMyxBeal5erH-5" value="" style="endArrow=none;html=1;rounded=0;exitX=1;exitY=0.3333333333333333;exitDx=0;exitDy=0;exitPerimeter=0;entryX=0;entryY=0.5;entryDx=0;entryDy=0;" edge="1" parent="1" source="JMo5-8yaMocJc1o28oo3-1" target="ZpiSfnfSVMyxBeal5erH-2">
          <mxGeometry width="50" height="50" relative="1" as="geometry">
            <mxPoint x="240" y="440" as="sourcePoint" />
            <mxPoint x="290" y="390" as="targetPoint" />
          </mxGeometry>
        </mxCell>
        <mxCell id="ZpiSfnfSVMyxBeal5erH-6" value="" style="endArrow=none;html=1;rounded=0;exitX=1;exitY=0.3333333333333333;exitDx=0;exitDy=0;exitPerimeter=0;entryX=0;entryY=0;entryDx=0;entryDy=0;" edge="1" parent="1" source="JMo5-8yaMocJc1o28oo3-1" target="ZpiSfnfSVMyxBeal5erH-3">
          <mxGeometry width="50" height="50" relative="1" as="geometry">
            <mxPoint x="240" y="440" as="sourcePoint" />
            <mxPoint x="290" y="390" as="targetPoint" />
          </mxGeometry>
        </mxCell>
        <mxCell id="ZpiSfnfSVMyxBeal5erH-32" value="uc Użytkownik niezalogowany&amp;nbsp;" style="shape=umlFrame;whiteSpace=wrap;html=1;pointerEvents=0;recursiveResize=0;container=1;collapsible=0;width=180;height=30;" vertex="1" parent="1">
          <mxGeometry x="10" y="150" width="650" height="470" as="geometry" />
        </mxCell>
      </root>
    </mxGraphModel>
  </diagram>
</mxfile>
